<svg width="35" height="32" viewBox="0 0 35 32" fill="none" xmlns="http://www.w3.org/2000/svg">
<path d="M16.0869 15.8187C15.5881 14.6536 15.3125 13.3239 15.3125 11.8519C15.3125 10.3799 15.5881 8.90193 16.0869 7.51526C16.5845 6.12741 17.3053 4.82963 18.1967 3.71674C19.087 2.60504 20.148 1.67467 21.3248 1.02519C22.5028 0.372148 23.7978 0 25.1562 0C26.5147 0 27.8097 0.298667 28.9877 0.837926C30.1656 1.37837 31.2255 2.15941 32.1158 3.12415C33.005 4.08889 33.728 5.23852 34.2256 6.51496C34.7255 7.79022 35 9.19467 35 10.6667C35 12.1387 34.7244 13.5431 34.2256 14.8184C33.728 16.0948 33.0072 17.2444 32.1158 18.2092C31.2266 19.1739 18.678 31.4596 17.5 32C16.322 31.4596 3.77344 19.1739 2.88312 18.2092C1.99281 17.2444 1.27203 16.0948 0.773281 14.8184C0.275625 13.5431 0 12.1387 0 10.6667C0 9.19467 0.275625 7.79022 0.773281 6.51496C1.27203 5.23852 1.99172 4.08889 2.88312 3.12415C3.77344 2.15941 4.83438 1.37837 6.01234 0.837926C7.18922 0.298667 8.48422 0 9.84375 0C11.2033 0 12.4983 0.372148 13.6752 1.02281C14.8531 1.67467 15.913 2.60385 16.8044 3.71556C17.6947 4.82844 18.4155 6.12622 18.9142 7.51407C19.4119 8.90193 19.6875 10.3799 19.6875 11.8519C19.6875 13.3239 19.4119 14.6536 18.9142 15.8187C18.4155 16.9837 17.6969 17.9852 16.8044 18.803" fill="#D9D9D9"/>
</svg>
